<?xml version="1.0" encoding="UTF-8" standalone="no"?>
<svg
   xmlns:dc="http://purl.org/dc/elements/1.1/"
   xmlns:cc="http://creativecommons.org/ns#"
   xmlns:rdf="http://www.w3.org/1999/02/22-rdf-syntax-ns#"
   xmlns:svg="http://www.w3.org/2000/svg"
   xmlns="http://www.w3.org/2000/svg"
   xmlns:sodipodi="http://sodipodi.sourceforge.net/DTD/sodipodi-0.dtd"
   xmlns:inkscape="http://www.inkscape.org/namespaces/inkscape"
   width="210mm"
   height="297mm"
   viewBox="0 0 210 297"
   version="1.1"
   id="svg8"
   inkscape:version="1.0.1 (3bc2e813f5, 2020-09-07)"
   sodipodi:docname="handwrite.svg">
  <defs
     id="defs2" />
  <sodipodi:namedview
     id="base"
     pagecolor="#ffffff"
     bordercolor="#666666"
     borderopacity="1.0"
     inkscape:pageopacity="0.0"
     inkscape:pageshadow="2"
     inkscape:zoom="1.4"
     inkscape:cx="417.73678"
     inkscape:cy="500.49961"
     inkscape:document-units="mm"
     inkscape:current-layer="layer1"
     inkscape:document-rotation="0"
     showgrid="false"
     inkscape:window-width="2560"
     inkscape:window-height="1387"
     inkscape:window-x="-8"
     inkscape:window-y="-8"
     inkscape:window-maximized="1" />
  <metadata
     id="metadata5">
    <rdf:RDF>
      <cc:Work
         rdf:about="">
        <dc:format>image/svg+xml</dc:format>
        <dc:type
           rdf:resource="http://purl.org/dc/dcmitype/StillImage" />
        <dc:title></dc:title>
      </cc:Work>
    </rdf:RDF>
  </metadata>
  <g
     inkscape:label="Lag 1"
     inkscape:groupmode="layer"
     id="layer1">
    <path
       style="fill:#000000;fill-opacity:1;fill-rule:nonzero;stroke:none;stroke-width:0.264583"
       id="path40"
       d="m 103.43328,43.966368 c 1.7109,0.486836 3.40258,1.039627 5.07505,1.645163 1.67474,0.647687 3.42063,1.006451 5.1963,1.226783 2.47732,0.270909 4.9697,0.128796 7.43383,-0.187156 2.49162,-0.392406 4.83651,-1.360733 7.08056,-2.480117 0.11981,-0.04538 1.09099,-0.637209 1.2575,-0.468487 0.0853,0.08648 0.0635,0.309758 0.0664,0.392441 -0.004,0.120457 -0.002,0.241276 -0.0126,0.361368 -0.0384,0.449408 -0.12898,0.895035 -0.1763,1.343747 -0.042,0.398526 -0.0735,0.798102 -0.11328,1.196861 -0.15161,1.686012 -0.52461,3.339137 -0.80924,5.005128 -0.25738,1.616813 -0.64092,3.20701 -0.92481,4.819113 -0.49655,2.39191 -0.99236,4.782349 -1.38348,7.1941 -0.49407,2.954272 -1.03504,5.900341 -1.58305,8.844979 -0.55961,2.630204 -1.05752,5.271283 -1.50251,7.923069 -0.49353,2.525623 -0.99888,5.049115 -1.49844,7.573775 -0.50203,2.592072 -0.98571,5.188553 -1.52684,7.772871 -0.4229,1.942062 -0.89876,3.871934 -1.42866,5.787424 -0.47536,1.54951 -0.90891,3.11187 -1.41362,4.65213 -0.41789,1.07234 -0.86874,2.13115 -1.38066,3.16195 -0.21161,0.37727 -0.35651,0.82541 -0.64361,1.15805 -0.0704,0.0815 -0.21247,0.18701 -0.29695,0.25349 -0.0668,0.0455 -0.27049,0.17703 -0.20045,0.13661 0.71835,-0.41449 2.87465,-1.65518 2.14594,-1.25916 -0.89301,0.4853 -1.7572,1.02189 -2.63908,1.52716 -0.72455,0.41513 1.44741,-0.83331 2.16714,-1.25676 0.0697,-0.041 -0.14362,0.0746 -0.21673,0.10922 -0.0775,0.0367 -0.15671,0.0699 -0.23507,0.10488 -0.52672,0.25762 -1.06767,0.30532 -1.64209,0.23642 -0.85974,-0.1595 -1.6603,-0.46609 -2.34505,-1.01191 -0.49759,-0.3949 -0.72657,-0.89409 -0.86342,-1.49591 -0.18744,-0.91214 -0.0926,-1.8326 0.0647,-2.7401 0.20453,-1.29272 0.62113,-2.52854 1.03269,-3.76567 0.74634,-1.980169 1.50624,-3.955992 2.34103,-5.900719 0.81429,-1.865839 1.67212,-3.712565 2.53767,-5.555102 0.86103,-1.761712 1.74455,-3.511071 2.67386,-5.237663 1.13931,-2.023173 2.1607,-4.108971 3.27972,-6.142778 1.03401,-1.916848 2.13737,-3.794998 3.20828,-5.691245 0.91565,-1.634776 1.72758,-3.323358 2.51582,-5.022194 0.30004,-0.826662 0.80937,-1.540023 1.2403,-2.295644 0.59285,-0.910201 2.28764,-1.698191 -1.73114,0.772186 -0.0595,0.03659 0.12707,-0.06142 0.19547,-0.07572 0.0882,-0.01844 0.17973,-0.01431 0.26959,-0.02146 0.59656,0.0078 1.15531,0.200022 1.69578,0.434295 0.55477,0.297291 1.15856,0.410961 1.7721,0.507976 0.84996,0.200237 1.66631,0.103158 2.50456,-0.09396 2.33079,-0.74109 4.47589,-2.007986 6.42042,-3.480072 0.47488,-0.298371 0.79447,-0.782461 1.22969,-1.124464 0.0718,-0.05642 0.31848,-0.17881 0.23953,-0.13294 -2.33413,1.355995 -1.43462,1.455741 -2.39732,1.332122 -0.31767,0.95854 -0.63658,1.916999 -1.01077,2.855351 -0.44363,1.080178 -0.75276,2.101565 -0.9156,3.258558 -0.0993,1.018673 -0.20331,2.050794 -0.0681,3.069879 0.17318,0.73484 0.41666,1.44794 0.80633,2.095865 0.38022,0.499962 0.87882,0.872212 1.42686,1.167569 0.41728,0.214596 0.87287,0.299561 1.33525,0.340365 0.41462,0.04175 0.82127,0.01508 1.22859,-0.06531 1.60614,-0.527706 3.04496,-1.541454 4.20748,-2.756405 0.61953,-0.716023 1.10693,-1.532107 1.56966,-2.354596 0.33732,-0.564012 0.5049,-1.190794 0.70085,-1.809366 0.1196,-0.543002 0.33856,-1.052902 0.54305,-1.567879 0.32281,-0.92488 0.69669,-1.828096 1.11311,-2.714794 0.27755,-0.515723 0.52548,-1.046168 0.78281,-1.571929 0.0819,-0.167323 0.26154,-0.689703 0.4969,-0.756595 -0.8714,0.438743 -1.7882,0.797021 -2.61419,1.316226 -0.11304,0.07106 -0.0646,0.259133 -0.0977,0.388469 -0.21016,0.819039 -0.43973,1.631389 -0.63291,2.454817 -0.22213,1.016074 -0.38308,2.044002 -0.46402,3.080848 -0.0415,1.266891 -0.10119,2.53764 -0.0552,3.80505 0.0556,0.738055 0.0582,1.480814 0.19489,2.20958 0.11908,0.487172 0.53603,0.663149 0.94959,0.858573 0.47717,0.185044 0.94162,0.512514 1.45783,0.5871 0.10238,0.01479 0.20684,0.004 0.31026,0.0061 1.29616,-0.402789 2.51828,-1.146149 3.50549,-2.078281 0.38063,-0.359397 0.71277,-0.777968 1.06925,-1.160944 0.5199,-0.638453 1.11225,-1.210276 1.66856,-1.81492 0.47455,-0.603163 0.89107,-1.247979 1.34662,-1.86504 0.72245,-1.008668 1.38751,-2.06099 2.04076,-3.116286 0.88091,-1.427501 1.74285,-2.866861 2.62014,-4.296929 0.90681,-1.603687 1.81971,-3.203548 2.73312,-4.803388 0.7912,-1.384951 1.45384,-2.835535 2.11813,-4.283782 0.50666,-1.12019 0.9274,-2.275824 1.37304,-3.420896 0.49867,-1.315651 0.88635,-2.670571 1.37218,-3.99026 0.25669,-0.643059 0.39406,-1.305928 0.45903,-1.992003 0.0448,-0.578996 0.038,-1.160322 0.0356,-1.740564 5.3e-4,-0.512929 -0.16708,-0.993447 -0.28275,-1.485686 -0.0816,-0.43579 -0.13485,-0.878522 -0.24722,-1.30774 -0.0203,-0.0567 -0.0296,-0.118565 -0.0608,-0.170085 -0.5785,-0.956736 -2.48884,0.690587 -3.19185,1.502802 -0.38991,0.687141 -0.6986,1.421725 -0.98536,2.15819 -0.24557,0.69491 -0.41422,1.413304 -0.59948,2.125686 -0.19707,0.908318 -0.44051,1.804453 -0.62814,2.715136 -0.23515,1.147043 -0.48617,2.290231 -0.72492,3.436914 -0.27442,1.372748 -0.65563,2.720297 -0.97833,4.081372 -0.3104,1.257253 -0.6807,2.498209 -0.9861,3.757181 -0.33471,1.201304 -0.68345,2.398443 -1.02351,3.598133 -0.38556,1.275302 -0.72686,2.561505 -1.02189,3.860638 -0.29788,1.383792 -0.55248,2.777334 -0.69653,4.185883 -0.0898,0.96221 -0.13508,1.927302 -0.1452,2.893364 -0.0249,0.627409 0.0831,1.257123 0.29005,1.848681 0.19018,0.380934 0.53766,0.459145 0.92813,0.480957 0.4719,-0.01066 0.93974,0.06078 1.40837,0.105272 0.43029,0.03569 0.86157,0.06766 1.29216,0.02967 1.70413,-0.552127 3.25061,-1.606079 4.58639,-2.791611 0.78395,-0.767405 1.40496,-1.686255 1.98879,-2.610413 0.0801,-0.13503 0.15595,-0.272624 0.24019,-0.405088 0.15575,-0.24489 0.33655,-0.473265 0.49167,-0.718558 0.202,-0.319442 0.3589,-0.662612 0.52837,-0.999545 0.23918,-0.5641 0.34442,-1.172896 0.52414,-1.759051 0.14352,-0.542658 0.27961,-1.088123 0.46167,-1.619213 0.16854,-0.363678 0.22405,-0.973373 0.45638,-1.292958 0.0129,-0.01773 0.0437,-0.0034 0.0655,-0.0051 -0.86196,0.439867 -1.75659,0.820878 -2.58589,1.319604 -0.0808,0.04862 -0.0417,0.184063 -0.066,0.275223 -0.14761,0.553661 -0.30041,1.105307 -0.45816,1.656318 -0.25289,0.85953 -0.34487,1.748806 -0.41622,2.638292 -0.0876,1.179656 -0.19992,2.350569 -0.14045,3.533987 0.0447,0.884312 0.11176,1.537295 0.75016,2.182349 0.55164,0.432139 1.26005,0.589132 1.92584,0.76304 0.10955,0.02469 0.21637,0.07182 0.32864,0.07409 0.15171,0.0031 0.31627,0.01056 0.45147,-0.05832 0.97294,-0.495691 1.91832,-1.046112 2.84619,-1.621774 0.17997,-0.111654 0.31407,-0.284398 0.46527,-0.432697 0.59759,-0.586113 0.55311,-0.568851 1.11915,-1.245576 0.90457,-1.10027 1.8019,-2.204924 2.72486,-3.289945 0.75194,-0.880264 1.54641,-1.71893 2.38411,-2.517768 0.56861,-0.521536 1.09118,-1.099227 1.68005,-1.598903 0.35591,-0.276799 0.19,-0.141192 0.49959,-0.404548 0.80506,-0.551034 2.121,-1.298054 -1.81995,1.035275 -0.0693,0.04102 0.14307,-0.07404 0.21607,-0.108022 0.17334,-0.08068 0.29171,-0.12292 0.47189,-0.192746 0.51117,-0.211828 1.01351,-0.439385 1.54818,-0.585666 0.0839,-0.01794 0.1679,-0.03588 0.25184,-0.05382 0,0 2.23823,-1.690656 2.23823,-1.690656 v 0 c -0.0874,0.01431 -0.17479,0.02861 -0.26219,0.04292 -0.54729,0.117956 -1.06444,0.313677 -1.56858,0.557609 -1.31601,0.489543 -2.58375,1.151758 -3.67342,2.04605 -0.74502,0.627522 -1.42424,1.326586 -2.1265,2.000787 -0.83867,0.813413 -1.6453,1.657956 -2.39585,2.554091 -0.9034,1.083109 -1.77694,2.18983 -2.68426,3.269549 -0.48985,0.55308 -0.62733,0.744355 -1.16314,1.219899 -0.15767,0.139927 -0.68465,0.48437 -0.49353,0.395427 0.67382,-0.313584 1.30231,-0.716568 1.95347,-1.074854 -0.12227,0.05235 -0.23501,0.139248 -0.36682,0.157057 -0.10967,0.01482 -0.21724,-0.04232 -0.32586,-0.06347 -0.62732,-0.148521 -1.28874,-0.297526 -1.83655,-0.648287 -0.59655,-0.53104 -0.63314,-1.215218 -0.6799,-1.977909 -0.0481,-1.173546 0.0786,-2.335617 0.16386,-3.505128 0.0801,-0.876769 0.20562,-1.748282 0.45065,-2.59614 0.15629,-0.557487 0.32129,-1.113991 0.46571,-1.674643 0.0262,-0.101753 0.17044,-0.336748 0.0695,-0.307467 -0.87918,0.255114 -1.69821,0.6843 -2.54731,1.026449 -0.0184,0.169103 0.003,0.03537 -0.0992,0.314179 -0.12992,0.354449 -0.23075,0.718048 -0.34949,1.076198 -0.16498,0.538962 -0.32082,1.07995 -0.46173,1.625629 -0.17012,0.57418 -0.26693,1.174838 -0.53945,1.712791 -0.36657,0.729795 -0.82473,1.397579 -1.25602,2.089875 -0.58701,0.907497 -1.20572,1.812002 -2.01758,2.535618 -0.13023,0.10999 -0.25767,0.223367 -0.39069,0.329973 -0.12965,0.103918 -0.26172,0.204965 -0.39705,0.301384 -0.13205,0.09409 -0.54722,0.34716 -0.40469,0.269872 0.6823,-0.369964 1.35059,-0.765188 2.02538,-1.148664 0.1079,-0.06132 -0.21378,0.126471 -0.32467,0.182181 -0.0913,0.04586 -0.18739,0.08143 -0.28109,0.12214 -0.40403,0.117911 -0.83025,0.04158 -1.24696,0.02999 -0.47179,-0.03694 -0.94172,-0.115671 -1.41386,-0.124219 -0.26425,0.0046 -0.59124,0.06812 -0.75032,-0.189477 -0.19599,-0.563379 -0.2887,-1.157882 -0.26009,-1.75479 0.0103,-0.952651 0.0356,-1.90594 0.12719,-2.854807 0.15377,-1.397881 0.39751,-2.784491 0.71,-4.155704 0.30001,-1.294747 0.65278,-2.574417 1.0307,-3.848566 0.34733,-1.201976 0.69692,-2.403033 1.02462,-3.610665 0.30884,-1.255911 0.67154,-2.497151 0.97724,-3.753615 0.33553,-1.360186 0.68889,-2.716326 0.97445,-4.0884 0.24636,-1.149257 0.50926,-2.294644 0.74442,-3.446126 0.19785,-0.907032 0.43637,-1.803787 0.64373,-2.708572 0.18303,-0.703662 0.3644,-1.410118 0.61222,-2.094259 0.28491,-0.712081 0.56874,-1.460846 1.05143,-2.063329 0.1071,-0.09358 0.46309,-0.327372 0.33685,-0.261885 -0.77877,0.403966 -1.54641,0.829112 -2.3244,1.234573 -0.0239,0.01246 0.034,-0.04719 0.06,-0.05443 0.0869,-0.02421 0.10707,0.14161 0.11487,0.162433 0.10612,0.430733 0.15012,0.873514 0.24294,1.307102 0.11905,0.46863 0.27533,0.928603 0.26341,1.419953 -0.002,0.571963 7.9e-4,1.14509 -0.0497,1.715349 -0.0737,0.660138 -0.23966,1.294937 -0.46301,1.920793 -0.44744,1.326653 -0.8517,2.668728 -1.36068,3.974124 -0.45179,1.138925 -0.87955,2.288153 -1.37875,3.407579 -0.65173,1.444331 -1.32274,2.880519 -2.11388,4.255288 -0.89917,1.602052 -1.81187,3.196286 -2.72659,4.789509 -0.88577,1.433777 -1.74893,2.881381 -2.64775,4.306845 -0.66436,1.049128 -1.32224,2.106557 -2.0631,3.103602 -0.45386,0.62035 -0.87998,1.26365 -1.3841,1.845315 -0.56064,0.59046 -1.11046,1.190475 -1.64386,1.805803 -0.35226,0.381571 -0.6912,0.787003 -1.08718,1.125209 -0.1299,0.110951 -0.55861,0.389567 -0.406,0.312775 1.04685,-0.526794 2.83305,-1.620944 1.72369,-0.944663 -0.0836,0.02498 -0.16359,0.07062 -0.2507,0.07493 -0.39226,0.01937 -1.05546,-0.389186 -1.42236,-0.539512 -0.32442,-0.158414 -0.71947,-0.240289 -0.81455,-0.633552 -0.13681,-0.710634 -0.14681,-1.436971 -0.20528,-2.156839 -0.0489,-1.257861 -0.009,-2.519159 0.0715,-3.774977 0.0961,-1.021363 0.25545,-2.035902 0.47063,-3.039099 0.19615,-0.826442 0.42574,-1.641269 0.65956,-2.457707 0.0391,-0.136615 0.25618,-0.442158 0.11782,-0.409715 -0.88194,0.206793 -1.69066,0.651147 -2.53599,0.976723 -0.0785,0.208436 0.005,-0.0013 -0.18015,0.369429 -0.33821,0.678246 -0.65738,1.366047 -1.00958,2.03739 -0.41307,0.895585 -0.77727,1.808435 -1.11895,2.733267 -0.21502,0.523275 -0.42374,1.046266 -0.5505,1.599237 -0.17459,0.605385 -0.38633,1.195308 -0.70542,1.742763 -0.46453,0.808014 -0.95662,1.608762 -1.60075,2.288659 -0.10186,0.100028 -0.20102,0.202861 -0.30556,0.30008 -0.1116,0.103796 -0.22634,0.20424 -0.34262,0.302755 -0.10909,0.09242 -0.46062,0.335068 -0.33335,0.269922 0.70192,-0.359275 1.37072,-0.780103 2.06401,-1.155761 0.0896,-0.04856 -0.16216,0.124963 -0.25166,0.173747 -0.0737,0.04016 -0.15639,0.06085 -0.23459,0.09128 -0.38453,0.119917 -0.77108,0.166029 -1.17395,0.133977 -0.43657,-0.01789 -0.87315,-0.06077 -1.27746,-0.241085 -0.51795,-0.250214 -0.98519,-0.583383 -1.35268,-1.031418 -0.37386,-0.612187 -0.59724,-1.293428 -0.7545,-1.991661 -0.12442,-0.994013 -0.0251,-1.999893 0.0846,-2.991414 0.17977,-1.1083 0.51578,-2.163003 0.94022,-3.202313 0.22065,-0.578535 0.42655,-1.161036 0.63222,-1.74503 0.0425,-0.120735 0.27926,-0.771006 0.31866,-0.939207 0.0248,-0.10582 0.0267,-0.215723 0.04,-0.323586 -0.041,-0.106039 -0.0164,-0.357851 -0.12295,-0.318116 -2.34371,0.874329 -2.47189,1.298104 -3.99706,2.575525 -0.19533,0.142862 -0.38726,0.290502 -0.586,0.428588 -0.19677,0.136724 -0.81285,0.505968 -0.60018,0.395592 0.57403,-0.297918 1.14142,-0.611158 1.68642,-0.959342 0.22842,-0.145931 -0.48771,0.236784 -0.73368,0.350668 -0.24283,0.112427 -0.48378,0.229783 -0.73261,0.328218 -0.22901,0.09059 -0.46624,0.158843 -0.69936,0.238266 -0.79902,0.220985 -1.59032,0.356952 -2.41255,0.169325 -0.59132,-0.102235 -1.19146,-0.155133 -1.72975,-0.449247 -0.55934,-0.260646 -1.13552,-0.482036 -1.75764,-0.52937 -1.43487,-0.151355 -2.84405,0.89948 -3.56116,2.104004 -0.44999,0.739873 -0.86891,1.494634 -1.18765,2.302907 -0.76764,1.689994 -1.5705,3.364701 -2.48301,4.982273 -1.07214,1.896856 -2.18351,3.77186 -3.20795,5.695384 -1.10646,2.041747 -2.13557,4.124827 -3.28184,6.145337 -0.93495,1.731848 -1.8282,3.485657 -2.68272,5.258667 -0.85779,1.842498 -1.70937,3.688374 -2.51439,5.554663 -0.83117,1.960202 -1.60766,3.943855 -2.36321,5.934315 -0.42927,1.25281 -0.83594,2.51297 -1.04921,3.82422 -0.14194,0.94346 -0.22129,1.89835 -0.0274,2.84217 0.16095,0.69027 0.40346,1.1889 0.96093,1.65354 0.7574,0.62196 1.4726,0.90339 2.42001,1.13392 0.58809,0.12704 1.16591,0.13953 1.7291,-0.10128 1.13959,-0.46851 1.7726,-0.96138 3.10146,-1.70357 0.72395,-0.40435 -2.86088,1.67781 -2.15532,1.24217 3.13839,-1.9378 1.82122,-0.86026 2.83639,-1.7048 0.40161,-0.42335 0.61481,-0.97803 0.86896,-1.49524 0.49761,-1.03992 0.94557,-2.1042 1.34132,-3.18703 0.48896,-1.54329 0.91922,-3.10468 1.38905,-4.65387 0.5203,-1.914214 0.98178,-3.843534 1.38551,-5.785872 0.52856,-2.585958 1.00518,-5.182547 1.51855,-7.771569 0.49766,-2.526816 1.01967,-5.048904 1.49375,-7.580045 0.44422,-2.647633 0.95206,-5.282708 1.49151,-7.912571 0.54518,-2.945847 1.07357,-5.894864 1.57766,-8.848021 0.41104,-2.423618 0.93233,-4.823481 1.45458,-7.225271 0.2896,-1.609532 0.66491,-3.201265 0.91764,-4.817502 0.28878,-1.674989 0.64765,-3.339615 0.82357,-5.032144 0.10947,-0.98878 0.27076,-1.976017 0.31179,-2.969191 -0.0386,-0.277805 -0.0752,-0.686875 -0.40586,-0.80069 -0.41236,-0.141928 -0.93443,0.347228 -1.26474,0.459668 -2.22805,1.166458 -4.57419,2.164323 -7.06704,2.586723 -2.4395,0.330216 -4.91081,0.486219 -7.36639,0.222567 -1.75842,-0.212804 -3.48551,-0.563197 -5.14979,-1.185592 -1.66491,-0.588024 -3.34452,-1.133549 -5.0201,-1.689595 0,0 -2.31885,1.573313 -2.31885,1.573313 z" />
    <path
       style="fill:#000000;fill-opacity:1;fill-rule:nonzero;stroke:none;stroke-width:0.264583"
       id="path42"
       d="m 185.27606,67.111964 c 0.69038,-0.274204 1.40326,-0.517187 2.14964,-0.550207 0.55637,0.0021 1.00922,0.314852 1.49436,0.540245 0.43338,0.159528 0.73452,0.416275 0.95668,0.816486 0.0436,0.08716 0.0921,0.172093 0.13092,0.261482 0.0521,0.119751 0.12202,0.265184 0.0789,0.403405 -0.0113,0.03641 -0.10736,0.106471 -0.0748,0.08657 2.36457,-1.445888 3.13418,-1.399898 2.08504,-1.420974 -0.52543,-0.262015 -0.95736,-0.662483 -1.48191,-0.929643 -0.47993,-0.213021 -0.98066,-0.378187 -1.49267,-0.493281 -0.38569,-0.07334 -0.73951,-0.282887 -1.14008,-0.276387 -0.27728,0.0045 -0.47949,0.07488 -0.74615,0.144077 -1.26137,0.419454 -2.22959,1.11615 -3.44318,1.829996 -0.34751,0.204403 -0.62983,0.508103 -0.89493,0.804235 -0.5286,0.637445 -1.05609,1.299509 -1.39407,2.059652 -0.26207,0.797726 -0.32844,1.636884 -0.37283,2.469861 -0.0195,0.756711 -0.007,1.513949 -0.007,2.270866 0.0268,0.605472 0.1175,1.207259 0.37173,1.760421 0.31468,0.624893 0.87726,1.058484 1.43897,1.450909 0.60319,0.394163 1.05509,0.496953 1.76374,0.388744 1.26491,-0.332235 2.38981,-1.233755 3.45668,-1.870506 0.38093,-0.227351 0.71565,-0.50727 1.05357,-0.792184 0.79365,-0.640199 1.29155,-1.514911 1.73624,-2.412881 0.42958,-0.797793 0.82215,-1.612273 1.19502,-2.43787 0.38403,-0.942277 0.85092,-1.846348 1.28033,-2.768024 0.0533,-0.126195 0.10906,-0.251388 0.15993,-0.378589 0.12976,-0.324488 0.19908,-0.661718 0.31771,-0.988267 0.0168,-0.04629 0.11206,-0.153482 0.0682,-0.13105 -0.84594,0.432831 -1.66512,0.916074 -2.49768,1.37411 -0.12747,0.910326 -0.31028,1.804144 -0.56253,2.687802 -0.3089,1.169752 -0.52986,2.359144 -0.80582,3.536471 -0.21945,0.878306 -0.41524,1.720779 -0.17784,2.612512 0.29782,0.747934 0.8909,1.314489 1.4643,1.859206 0.92713,0.845097 1.42374,0.909748 2.66711,0.954555 0.9729,-0.01595 1.9426,-0.105717 2.90101,-0.271166 0,0 2.224,-1.679786 2.224,-1.679786 v 0 c -0.95357,0.193505 -1.91863,0.304474 -2.89195,0.337648 -0.52032,-0.0089 -1.10244,0.02024 -1.60249,-0.167455 -0.35476,-0.133173 -0.62554,-0.420378 -0.92638,-0.636556 -0.53656,-0.501822 -1.10281,-1.031822 -1.3741,-1.728351 -0.19712,-0.832937 0.0156,-1.663239 0.20779,-2.479632 0.26802,-1.17778 0.49744,-2.364423 0.81978,-3.529431 0.25131,-0.924737 0.46714,-1.872488 0.54405,-2.828084 -0.8487,0.38068 -1.71377,0.726776 -2.54608,1.142045 -0.002,7.94e-4 -0.10848,0.3873 -0.11846,0.41996 -0.10996,0.359807 -0.24725,0.709629 -0.40678,1.050414 -0.42576,0.920803 -0.87306,1.831531 -1.27067,2.765126 -0.38058,0.818971 -0.78474,1.625391 -1.19921,2.427706 -0.45537,0.877356 -0.99049,1.7009 -1.78826,2.309299 -0.33457,0.26529 -0.34857,0.286025 -0.6984,0.525576 -0.12074,0.08268 -0.49543,0.311042 -0.36676,0.241316 0.6816,-0.369374 1.34986,-0.762857 2.02671,-1.140872 0.11216,-0.06264 -0.21616,0.140435 -0.33259,0.194714 -0.10439,0.04866 -0.21778,0.07508 -0.32667,0.112612 -0.66222,0.171908 -1.03888,0.153459 -1.63921,-0.204575 -0.53268,-0.346901 -1.05995,-0.744975 -1.34909,-1.326711 -0.23774,-0.515488 -0.30473,-1.084813 -0.32904,-1.647534 -0.005,-0.752906 -0.0108,-1.506204 0.0176,-2.258753 0.0411,-0.802389 0.10606,-1.616329 0.41637,-2.367005 0.38066,-0.719275 0.87564,-1.378421 1.42563,-1.977123 0.29182,-0.279307 0.28875,-0.297008 0.61297,-0.527965 0.10213,-0.07276 0.42439,-0.266849 0.31458,-0.206301 -3.86116,2.128924 -2.2889,1.22909 -1.37186,0.875178 0.2835,-0.09423 0.65313,-0.261916 0.96279,-0.235281 0.28504,0.02453 0.55186,0.217419 0.83164,0.266536 0.5001,0.08835 0.98279,0.246944 1.45256,0.438777 0.55144,0.236678 0.98967,0.63531 1.49452,0.950918 0.088,0.05155 0.17212,0.198871 0.26401,0.154636 0.0357,-0.0172 2.60041,-0.620268 2.54939,-1.686738 -0.0133,-0.278968 -0.15198,-0.521475 -0.2745,-0.764421 -0.24524,-0.450863 -0.5577,-0.789569 -1.04781,-0.976698 -0.52374,-0.214114 -0.99029,-0.571135 -1.56946,-0.626819 -0.76488,-0.03959 -1.49322,0.20021 -2.20695,0.457911 0,0 -2.20654,1.735138 -2.20654,1.735138 z" />
    <path
       style="fill:#000000;fill-opacity:1;fill-rule:nonzero;stroke:none;stroke-width:0.264583"
       id="path44"
       d="m 173.20727,57.679719 c -0.25625,0.634095 -0.75515,1.327346 -0.59913,2.053743 0.0267,0.124172 0.0933,0.236255 0.13994,0.354381 0.43743,0.622495 1.1537,0.964199 1.8952,1.061251 0,0 2.27704,-1.640554 2.27704,-1.640554 v 0 c -0.64877,0.03944 -1.32688,-0.270153 -1.72762,-0.779431 -0.0317,-0.0896 -0.0804,-0.174889 -0.095,-0.26879 -0.10123,-0.651274 0.40909,-1.363567 0.67374,-1.917083 0,0 -2.56418,1.136483 -2.56418,1.136483 z" />
  </g>
</svg>
